<svg width="10" height="9" viewBox="0 0 10 9" fill="none" xmlns="http://www.w3.org/2000/svg">
<circle cx="4.95882" cy="4.83894" r="1.75764" fill="white"/>
<path fill-rule="evenodd" clip-rule="evenodd" d="M3.39072 3.00011C3.846 2.54483 4.45131 2.29141 5.09517 2.29141C5.73903 2.29141 6.34434 2.54617 6.79962 3.00145C7.08849 3.29032 7.29486 3.63745 7.40723 4.02485H9.21667V1.59284C9.21667 1.02229 8.77568 0.581299 8.20512 0.581299H2.00674C1.43618 0.581299 0.952148 1.02229 0.952148 1.59284V4.02485H2.78308C2.89547 3.63745 3.10185 3.28898 3.39072 3.00011ZM8.52766 2.37143C8.52766 2.52349 8.4044 2.64676 8.25233 2.64676H7.42634C7.27428 2.64676 7.15101 2.52351 7.15101 2.37143V1.54544C7.15101 1.39339 7.27426 1.27012 7.42634 1.27012H8.25233C8.40438 1.27012 8.52766 1.39337 8.52766 1.54544V2.37143Z" fill="white"/>
<path fill-rule="evenodd" clip-rule="evenodd" d="M6.79962 6.40912C6.34434 6.8644 5.73903 7.11244 5.09517 7.11244C4.45131 7.11244 3.846 6.86575 3.39072 6.41047C2.93628 5.95603 2.68567 5.33777 2.68473 4.71362H0.952148V7.79129C0.952148 8.36185 1.43618 8.84588 2.00674 8.84588H8.20512C8.77568 8.84588 9.21667 8.36185 9.21667 7.79129V4.71362H7.50561C7.50468 5.33777 7.25408 5.95468 6.79962 6.40912Z" fill="white"/>
</svg>
