<svg width="11" height="9" viewBox="0 0 11 9" fill="none" xmlns="http://www.w3.org/2000/svg">
<path fill-rule="evenodd" clip-rule="evenodd" d="M10.9973 1.77383C10.627 1.93495 10.2311 2.04376 9.81393 2.09398C10.2396 1.84289 10.5674 1.44532 10.7206 0.972433C10.3226 1.20469 9.88204 1.37418 9.41168 1.46415C9.03496 1.06868 8.49861 0.821777 7.90693 0.821777C6.76827 0.821777 5.84669 1.72989 5.84669 2.84935C5.84669 3.00837 5.86372 3.16321 5.8999 3.31177C4.18658 3.22808 2.66693 2.4204 1.65171 1.19214C1.47506 1.49136 1.3729 1.84079 1.3729 2.21115C1.3729 2.91421 1.73897 3.53566 2.29235 3.89975C1.95181 3.89138 1.63256 3.79931 1.35587 3.64656C1.35587 3.65493 1.35587 3.6633 1.35587 3.67167C1.35587 4.65512 2.06674 5.47326 3.0096 5.65948C2.8372 5.70552 2.65416 5.73063 2.46687 5.73063C2.33491 5.73063 2.20508 5.71807 2.07951 5.69296C2.3413 6.49855 3.10325 7.08443 4.00567 7.10117C3.30118 7.6452 2.41153 7.96953 1.44526 7.96953C1.27925 7.96953 1.11537 7.95907 0.953613 7.94024C1.86242 8.52193 2.94575 8.85672 4.10783 8.85672C7.90268 8.85672 9.97569 5.7662 9.97569 3.08579C9.97569 2.99791 9.97356 2.91003 9.9693 2.82424C10.3716 2.53757 10.7206 2.18186 10.9973 1.77383Z" fill="white"/>
</svg>
